<?xml version="1.0" encoding="utf-8"?>
<!-- Generator: Adobe Illustrator 24.3.0, SVG Export Plug-In . SVG Version: 6.00 Build 0)  -->
<svg version="1.1" id="Layer_1" xmlns="http://www.w3.org/2000/svg" xmlns:xlink="http://www.w3.org/1999/xlink" x="0px" y="0px"
	 viewBox="0 0 442.4 634.8" style="enable-background:new 0 0 442.4 634.8;" xml:space="preserve">
<style type="text/css">
	.st0{fill:#F7D8A0;}
	.st1{fill:#FBE0BD;}
	.st2{fill:#EAB67C;}
	.st3{fill:#EFA554;}
	.st4{fill:#D38331;}
	.st5{fill:#FCF7EC;}
	.st6{opacity:0.83;fill:#F2E5D4;enable-background:new    ;}
	.st7{fill:#F2E5D4;}
	.st8{fill:#F1E5D6;}
	.st9{fill:#995D2E;}
	.st10{fill:#F2B3A5;}
	.st11{fill:#995D2E;stroke:#995D2E;stroke-width:0.75;stroke-miterlimit:10;}
	.st12{fill:none;stroke:#995D2E;stroke-width:2;stroke-miterlimit:10;}
	.st13{fill:none;stroke:#995D2E;stroke-width:5;stroke-miterlimit:10;}
	.st14{opacity:0.61;}
	.st15{fill:#ECE6DD;}
	.st16{opacity:0.83;fill:#ECE6DD;enable-background:new    ;}
	.st17{opacity:0.69;fill:#ECE6DD;enable-background:new    ;}
	.st18{opacity:0.69;fill:#E76A97;enable-background:new    ;}
	.st19{fill:#FFFFFF;}
</style>
<g id="Dumplings">
	<path class="st0" d="M430.9,382.2c7,0,12.6,5.7,12.6,12.6v117.2c0,2.1-0.1,4.2-0.4,6.2c-7,53-103.1,115-220.6,115S9,571.3,2,518.3
		c-0.3-2.1-0.4-4.1-0.4-6.2V394.8c0-7,5.6-12.6,12.6-12.6H430.9z"/>
	<ellipse class="st1" cx="222.5" cy="392.3" rx="221.2" ry="136"/>
	<ellipse class="st2" cx="222.5" cy="392.3" rx="192.4" ry="117.2"/>
	<path class="st0" d="M416.3,340.4h-54.7c-40.5-17.1-95.9-25.8-139-25.8s-98.1,8.9-138.4,25.8H28.9l0.5,12.5v38c0,0.1,0,0.2-0.1,0.4
		c-0.6,4.4-0.5,8.9,0.1,13.3v0.1l0,0c6.6,49.5,81.3,109,201.5,109c118.5,0,191.2-71.4,185-121.7L416.3,340.4z"/>
	<ellipse class="st1" cx="222.5" cy="352.9" rx="193.2" ry="123.9"/>
	<ellipse class="st3" cx="222.5" cy="352.9" rx="176.3" ry="101.4"/>
	<path class="st4" d="M228.3,453.3c12.9-0.2,25.8-1.3,38.5-3.2l32.5-134c-11.8-3.5-23.8-5.9-36-7.2L228.3,453.3z"/>
	<path class="st4" d="M179.6,450.3c13.6,1.9,27.3,2.9,41.1,3l35.2-145.2c-8.7-0.7-18.4-1-29.8-0.9c-4.4,0-8.3,0.1-11.8,0.1
		L179.6,450.3z"/>
	<path class="st4" d="M274.7,448.9c14.9-2.6,29.5-6.5,43.6-11.7L344,331.4c-3.3-1.6-6.7-3-10.1-4.1c-10.3-3.4-19.1-6.4-27.5-9
		L274.7,448.9z"/>
	<path class="st4" d="M87,416.7c12.5,8.5,26,15.4,40.1,20.5l30-123.4c-3.5,0.6-7.4,1.3-11.8,2c-7.7,1.3-21.9,7.1-37.2,14.2L87,416.7
		z"/>
	<path class="st4" d="M134.1,439.6c12.5,4.2,25.3,7.3,38.2,9.5l34.4-141.6c-18.1,0.6-26,2-41.7,4.8L134.1,439.6z"/>
	<path class="st4" d="M394.5,360.6c-8.3-5.4-27.3-17.4-43.7-25.8l-24,99.1c38.8-16.3,65.6-41.6,71.2-70.5c0-0.2,0.1-0.3,0.1-0.5
		L394.5,360.6z"/>
	<path class="st4" d="M80.5,411.9l18.9-78c-24.2,11.5-48.6,24.6-52.3,26.6l-0.1,0v0.2C49.9,379.9,61.9,397.4,80.5,411.9z"/>
	<path class="st5" d="M378.5,345L378.5,345c-5,22.1-33.7,39-68.3,39c-35.7,0-65.1-18-68.7-41.1c-2.8-8-3.5-16.5-2.2-24.8
		c0.6-3.5,3.1-18.9,15.3-28.8c9.6-7.8,25.5-12.5,31.6-18.7c9.1-9.1,7.2-9.6,14.4-13.9c7.2-4.3,12-6.7,18.2-3.4
		c6.2,3.4,2.9,6.2,9.6,9.6s26.9,13.4,34.5,21.6s19.2,28.8,19.7,36.9C383.1,329.3,378.8,344.1,378.5,345z"/>
	<path class="st6" d="M344.7,358.3c-28,11.6-52.9,6.4-61.7,4.5c-14.2-3.2-22.1-8.2-24.2-9.5c-10.3-6.8-16.4-22.1-19.5-27.3
		c0.2,1.8,0.6,10.7,1.1,12.7c0.4,1.7,0.9,3.1,1.3,4.3c3.6,23.1,33,41.2,68.7,41.2c34.6,0,63.3-16.9,68.3-39
		c2.8-7.5,4.2-15.6,3.9-23.6C376.3,328.7,363.6,350.4,344.7,358.3z"/>
	<path class="st7" d="M300.9,267.6c-1,0.1-6.7,1.1-9.6,6c-2.1,3.6-2.1,8,0,11.6c1.6,2.5,3.8,4.5,6.4,6l0,0
		C295.6,283.2,296.7,274.7,300.9,267.6L300.9,267.6z"/>
	<path class="st8" d="M311.7,270c0,0-6,7.2-2.8,12s4.4,8.8,10.4,9.2s-4.9-0.4-5.7-8.8C313.4,278.2,312.7,274.1,311.7,270z"/>
	<path class="st8" d="M324.9,270c0,0-2.8,6.4,0,9.4s3.6,5.4,9.2,5s6.8-3.8,6.8-3.8c-0.1,0.2-0.3,0.4-0.4,0.6c-2,2-7.4,0.3-10.6-2.2
		C327.1,276.8,325.3,273.5,324.9,270z"/>
	<circle class="st9" cx="336.2" cy="318.9" r="5.8"/>
	<ellipse class="st10" cx="339" cy="329.8" rx="7.5" ry="3.4"/>
	<circle class="st9" cx="287.7" cy="318.9" r="5.8"/>
	<ellipse class="st10" cx="283.9" cy="329.8" rx="7.5" ry="3.4"/>
	<path class="st11" d="M320.2,327.1c-4.7,4-11.5,4.2-16.4,0.5c-1-0.8-2,1-1,1.7c5.7,4.2,13.5,3.9,18.9-0.8
		C322.5,327.7,321.1,326.3,320.2,327.1z"/>
	<path class="st5" d="M203.2,346.3L203.2,346.3c-5,22.1-33.7,39-68.3,39c-35.7,0-65.1-18-68.7-41.1c-2.8-8-3.6-16.5-2.2-24.9
		c0.6-3.5,3.1-18.9,15.3-28.8c9.6-7.8,25.5-12.5,31.6-18.7c9.1-9.1,7.2-9.6,14.4-13.9c7.2-4.3,12-6.7,18.2-3.4
		c6.2,3.4,2.9,6.2,9.6,9.6s26.9,13.4,34.5,21.6s19.2,28.8,19.7,37C207.7,330.6,203.5,345.4,203.2,346.3z"/>
	<path class="st6" d="M169.3,359.5c-28,11.6-52.8,6.4-61.7,4.5c-14.2-3.2-22.1-8.2-24.2-9.5c-10.3-6.8-16.4-22.1-19.6-27.3
		c0.2,1.8,0.6,10.7,1.1,12.8c0.4,1.7,0.9,3.1,1.3,4.3c3.6,23.1,33,41.1,68.7,41.1c34.6,0,63.3-16.9,68.3-39
		c2.8-7.5,4.2-15.6,3.9-23.6C201,330,188.3,351.7,169.3,359.5z"/>
	<path class="st7" d="M125.6,268.9c-1,0.1-6.7,1.1-9.6,6c-0.9,1.5-1.4,3.2-1.6,4.9c-0.2,2.3,0.4,4.6,1.6,6.6c1.6,2.5,3.8,4.5,6.4,6
		l0,0C120.2,284.5,121.4,276,125.6,268.9L125.6,268.9z"/>
	<path class="st8" d="M136.3,271.3c0,0-6,7.2-2.8,12s4.4,8.8,10.4,9.2s-4.9-0.4-5.7-8.8C138,279.5,137.4,275.3,136.3,271.3z"/>
	<path class="st8" d="M149.5,271.3c0,0-2.8,6.4,0,9.4s3.6,5.4,9.2,5s6.8-3.8,6.8-3.8c-0.1,0.2-0.2,0.4-0.4,0.6
		c-2,2-7.4,0.3-10.6-2.2C151.8,278,150,274.8,149.5,271.3z"/>
	<ellipse class="st10" cx="163.7" cy="331" rx="7.5" ry="3.4"/>
	<ellipse class="st10" cx="108.6" cy="331" rx="7.5" ry="3.4"/>
	<path class="st12" d="M101.1,320.6"/>
	<path class="st12" d="M103.2,307.3"/>
	<path class="st13" d="M97.1,316.5c2.2,4.1,8.7,6.6,14.8,6c4.8-0.5,8.9-2.8,10.4-6"/>
	<path class="st13" d="M151.1,316.1c2.2,4.1,8.7,6.6,14.8,6c4.8-0.5,8.9-2.8,10.4-6"/>
	<path class="st9" d="M135.5,334c-0.1-0.5-0.7-0.8-1.2-0.7c0,0,0,0,0,0c-1.7,0.3-3.4,0.9-5,1.7c-0.4,0.2-0.6,0.7-0.5,1.1
		c0.2,0.6,0.6,1.2,1,1.8c-0.3,0-0.5,0.1-0.8,0.1c-1.1,0.1-1.9,1-2,2.1c0,1.1,0.6,2,1.5,2.5c1.3,0.5,2.8,0.4,4-0.3
		c0.5-0.1,0.9-0.6,0.8-1.2c0,0,0,0,0,0c-0.2-0.5-0.7-0.8-1.2-0.7c-0.5,0.2-1,0.4-1.6,0.5c-0.2,0-0.5,0-0.7,0c-0.1,0-0.2,0-0.3-0.1
		c0.2,0,0,0-0.1,0l0,0l0,0l-0.1-0.2c0,0-0.1-0.1-0.1-0.1l0,0l0,0c0,0,0-0.1,0-0.2c0,0,0-0.1,0-0.1l0,0l0,0l0,0l0,0l0,0l0,0
		c-0.1,0,0,0,0,0l0,0l0,0l0,0c0,0,0,0,0,0l0,0l0.1,0l0.1-0.1l0.2-0.1c0.3-0.1,0.7-0.1,1-0.2c0.8-0.1,1.5-0.7,1.8-1.5
		c0.1-0.4-0.1-0.9-0.5-1.1c-0.3-0.2-0.5-0.5-0.7-0.8c1.2-0.5,2.4-0.9,3.7-1.1C135.4,335.1,135.7,334.6,135.5,334
		C135.5,334,135.5,334,135.5,334z"/>
	<path class="st9" d="M129,340.1"/>
	<path class="st9" d="M129,340.1L129,340.1z"/>
	<path class="st9" d="M129,340.1C129,340.1,129.1,340.1,129,340.1z"/>
	<path class="st9" d="M129,340.1"/>
	<path class="st9" d="M129,340.1L129,340.1z"/>
	<g class="st14">
		<path class="st15" d="M297.2,398.1L297.2,398.1c-5.1,19.2-34.5,34-69.9,34c-36.5,0-66.6-15.7-70.3-35.9
			c-2.8-6.9-3.6-14.4-2.3-21.7c0.6-3,3.2-16.5,15.7-25.1c9.8-6.8,26-10.9,32.3-16.3c9.3-7.9,7.4-8.4,14.7-12.1s12.2-5.9,18.6-2.9
			s3,5.4,9.8,8.4s27.5,11.7,35.3,18.8s19.6,25.1,20.1,32.2C301.8,384.4,297.5,397.3,297.2,398.1z"/>
		<path class="st16" d="M262.6,409.6c-28.7,10.1-54,5.6-63,3.9c-14.5-2.8-22.6-7.1-24.7-8.3c-10.6-5.9-16.8-19.3-20-23.8
			c0.2,1.5,0.6,9.3,1.1,11.1c0.4,1.3,0.8,2.5,1.3,3.8c3.7,20.1,33.7,35.9,70.3,35.9c35.4,0,64.7-14.8,69.9-34c1-2.4,1.9-4.8,2.5-7.4
			c1.1-4.3,1.6-8.8,1.4-13.2C294.9,383.9,281.9,402.8,262.6,409.6z"/>
		<path class="st15" d="M217.8,330.6c-1,0.1-6.8,1-9.8,5.2c-2.2,3-2.2,7.1,0,10.1c2.2,3.2,6.5,5.2,6.5,5.2l0,0c-0.9-3-1.3-6.1-1-9.2
			C214,337.9,215.5,334,217.8,330.6z"/>
		<path class="st15" d="M228.9,332.7c0,0-6.1,6.3-2.9,10.5s4.5,7.7,10.6,8s-5-0.4-5.8-7.7C230.6,339.8,229.9,336.2,228.9,332.7z"/>
		<path class="st15" d="M242.3,332.7c0,0-2.9,5.6,0,8.2s3.7,4.7,9.4,4.4s7-3.3,7-3.3c-0.1,0.2-0.3,0.4-0.4,0.5
			c-2,1.7-7.6,0.2-10.8-1.9C244.7,338.8,242.9,335.9,242.3,332.7z"/>
		<ellipse class="st15" cx="252.9" cy="375.3" rx="5.9" ry="5"/>
		<ellipse class="st15" cx="256.8" cy="384.8" rx="7.6" ry="3"/>
		<ellipse class="st15" cx="204.3" cy="375.3" rx="5.9" ry="5"/>
		<ellipse class="st15" cx="200.5" cy="384.8" rx="7.6" ry="3"/>
		<path class="st15" d="M215.9,380.9c-2.5,0-4.1,2.1-2.8,3.7c3.3,4.1,9.1,6.8,15.7,6.8s12.5-2.7,15.7-6.8c1.3-1.6-0.2-3.7-2.8-3.7
			H215.9z"/>
		<path class="st17" d="M238,388.2c-0.2,2.1-5.3,3.2-8.6,3.2c-2.6,0-7.5-0.6-7.8-2.6s3.7-5.2,7.8-5.5
			C233.7,383,238.2,386.1,238,388.2z"/>
	</g>
	<path class="st5" d="M294.2,412.2L294.2,412.2c-5,22.3-33.7,39.4-68.3,39.4c-35.7,0-65.1-18.2-68.7-41.6
		c-2.8-8.1-3.6-16.7-2.2-25.2c0.6-3.5,3.1-19.1,15.3-29.1c9.6-7.9,25.5-12.7,31.7-18.9c9.1-9.2,7.2-9.7,14.4-14.1s12-6.8,18.2-3.4
		s2.9,6.3,9.6,9.7s26.9,13.6,34.5,21.8s19.2,29.1,19.7,37.4C298.8,396.3,294.5,411.3,294.2,412.2z"/>
	<path class="st6" d="M260.3,425.6c-28,11.7-52.8,6.5-61.7,4.5c-14.2-3.2-22.1-8.3-24.2-9.6c-10.3-6.9-16.4-22.4-19.6-27.6
		c0.2,1.8,0.6,10.8,1.1,12.9c0.4,1.7,0.9,3.2,1.3,4.4c3.6,23.4,33,41.6,68.7,41.6c34.6,0,63.3-17.1,68.3-39.4
		c2.9-7.6,4.2-15.8,3.9-23.9C292,395.8,279.3,417.7,260.3,425.6z"/>
	<path class="st7" d="M216.6,333.9c-1,0.1-6.7,1.1-9.6,6.1c-0.9,1.5-1.4,3.2-1.6,5c-0.2,2.3,0.4,4.7,1.6,6.7
		c1.6,2.5,3.8,4.6,6.4,6.1l0,0C211.3,349.7,212.4,341.1,216.6,333.9L216.6,333.9z"/>
	<path class="st8" d="M227.4,336.4c0,0-6,7.3-2.8,12.1s4.4,8.9,10.4,9.3s-4.9-0.4-5.7-8.9C229,344.7,228.4,340.5,227.4,336.4z"/>
	<path class="st8" d="M240.5,336.4c0,0-2.8,6.5,0,9.5s3.6,5.5,9.2,5s6.8-3.8,6.8-3.8c-0.1,0.2-0.2,0.4-0.4,0.6
		c-2,2-7.4,0.3-10.6-2.2C242.8,343.2,241,339.9,240.5,336.4z"/>
	<ellipse class="st9" cx="250.9" cy="385.8" rx="5.8" ry="5.8"/>
	<ellipse class="st10" cx="254.7" cy="396.8" rx="7.5" ry="3.4"/>
	<ellipse class="st9" cx="203.4" cy="385.8" rx="5.8" ry="5.8"/>
	<ellipse class="st10" cx="199.6" cy="396.8" rx="7.5" ry="3.4"/>
	<path class="st9" d="M214.7,392.3c-2.5,0-4,2.4-2.7,4.3c6,8.5,17.8,10.5,26.3,4.4c1.7-1.2,3.2-2.7,4.4-4.4c1.3-1.9-0.2-4.3-2.7-4.3
		H214.7z"/>
	<path class="st18" d="M236.3,400.7c-0.2,2.5-5.2,3.7-8.5,3.8c-2.5,0-7.3-0.7-7.6-3s3.7-6.1,7.6-6.4
		C232.1,394.7,236.5,398.3,236.3,400.7z"/>
</g>
<g id="steam">
	<path id="smoke_3" class="st19" d="M107.3,27.6c0,0,21.7,15.3,16.2,56.8s-30,35.3-16.2,72.1s47.1,47.6,47.1,47.6
		s-13.4-13.8-18-50.6s16.1-27.6,18-67.5S107.3,27.6,107.3,27.6z"/>
	<path id="smoke_2" class="st19" d="M233,13.8c0,0,12.8,16.9-3.5,66s-48.3,62.9-17,98.2s37.6,44.4,37.6,44.4s-26.7-47.6-18.8-72.1
		S269.3,112,275,67.5S233,13.8,233,13.8z"/>
	<path id="Smoke_1" class="st19" d="M328.2,67.5c0,0,5.5,6.1-12.6,58.3s-11.6,78.2-1.8,85.9l9.8,7.7c0,0-1.5-33.8,7.7-56.8
		s34.7-58.3,28.1-75.2S328.2,67.5,328.2,67.5z"/>
</g>
</svg>
